# xmcd CD database file
#
# Track frame offsets:
#	150
#	26519
#	31992
#	62831
#	107445
#	117902
#	147149
#	156981
#	192433
#	202432
#	227819
#	248703
#
# Disc length: 3677 seconds
#
# Revision: 0
# Processed by: cddbd v1.5.1PL2 Copyright (c) Steve Scherf et al.
# Submitted via: CDex 1.50
#
DISCID=a90e5b0c
DTITLE=Emanuele Cisi - L'ange caché
DYEAR=1996
DGENRE=Jazz
TTITLE0=Alice
TTITLE1=Intro per l'angelo
TTITLE2=L'ange cachè
TTITLE3=Mon ami J. P.
TTITLE4=Sogni crepuscolari
TTITLE5=Pieces of mouth
TTITLE6=Principi e angeli
TTITLE7=Petit prince
TTITLE8=Pane fresco
TTITLE9=Bread and trane
TTITLE10=Roma nun fa la stupida stasera
TTITLE11=The morning beguine
EXTD=YEAR: 1996
EXTT0=
EXTT1=
EXTT2=
EXTT3=
EXTT4=
EXTT5=
EXTT6=
EXTT7=
EXTT8=
EXTT9=
EXTT10=
EXTT11=
PLAYORDER=
